<svg width="160" height="160" viewBox="0 0 160 160" fill="none" xmlns="http://www.w3.org/2000/svg">
<path d="M79.933 13.3335C43.133 13.3335 13.333 43.2002 13.333 80.0002C13.333 116.8 43.133 146.667 79.933 146.667C116.8 146.667 146.666 116.8 146.666 80.0002C146.666 43.2002 116.8 13.3335 79.933 13.3335ZM79.9997 133.334C50.533 133.334 26.6663 109.467 26.6663 80.0002C26.6663 50.5335 50.533 26.6668 79.9997 26.6668C109.466 26.6668 133.333 50.5335 133.333 80.0002C133.333 109.467 109.466 133.334 79.9997 133.334Z" fill="white"/>
<path d="M83.333 46.6665H73.333V86.6665L108.333 107.667L113.333 99.4665L83.333 81.6665V46.6665Z" fill="white"/>
</svg>
