<svg width="160" height="160" viewBox="0 0 160 160" fill="none" xmlns="http://www.w3.org/2000/svg">
<path d="M59.9997 78.3335C55.3997 78.3335 51.6663 82.0668 51.6663 86.6668C51.6663 91.2668 55.3997 95.0002 59.9997 95.0002C64.5997 95.0002 68.333 91.2668 68.333 86.6668C68.333 82.0668 64.5997 78.3335 59.9997 78.3335ZM99.9997 78.3335C95.3997 78.3335 91.6663 82.0668 91.6663 86.6668C91.6663 91.2668 95.3997 95.0002 99.9997 95.0002C104.6 95.0002 108.333 91.2668 108.333 86.6668C108.333 82.0668 104.6 78.3335 99.9997 78.3335ZM79.9997 13.3335C43.1997 13.3335 13.333 43.2002 13.333 80.0002C13.333 116.8 43.1997 146.667 79.9997 146.667C116.8 146.667 146.666 116.8 146.666 80.0002C146.666 43.2002 116.8 13.3335 79.9997 13.3335ZM79.9997 133.334C50.5997 133.334 26.6663 109.4 26.6663 80.0002C26.6663 78.0668 26.7997 76.1335 26.9997 74.2668C42.733 67.2668 55.1997 54.4002 61.733 38.4668C73.7997 55.5335 93.6663 66.6668 116.133 66.6668C121.333 66.6668 126.333 66.0668 131.133 64.9335C132.533 69.6668 133.333 74.7335 133.333 80.0002C133.333 109.4 109.4 133.334 79.9997 133.334Z" fill="#F9F9F9"/>
</svg>
