<svg width="160" height="160" viewBox="0 0 160 160" fill="none" xmlns="http://www.w3.org/2000/svg">
<path d="M61.1337 112.2C71.5337 122.6 88.467 122.6 98.867 112.2C109.267 101.8 109.267 84.8668 98.867 74.4668L61.1337 112.2ZM120 13.4002L40.0003 13.3335C32.6003 13.3335 26.667 19.2668 26.667 26.6668V133.334C26.667 140.734 32.6003 146.667 40.0003 146.667H120C127.4 146.667 133.334 140.734 133.334 133.334V26.6668C133.334 19.2668 127.4 13.4002 120 13.4002ZM66.667 26.6668C70.3337 26.6668 73.3337 29.6668 73.3337 33.3335C73.3337 37.0002 70.3337 40.0002 66.667 40.0002C63.0003 40.0002 60.0003 37.0002 60.0003 33.3335C60.0003 29.6668 63.0003 26.6668 66.667 26.6668ZM46.667 26.6668C50.3337 26.6668 53.3337 29.6668 53.3337 33.3335C53.3337 37.0002 50.3337 40.0002 46.667 40.0002C43.0003 40.0002 40.0003 37.0002 40.0003 33.3335C40.0003 29.6668 43.0003 26.6668 46.667 26.6668ZM80.0003 133.334C57.9337 133.334 40.0003 115.4 40.0003 93.3335C40.0003 71.2668 57.9337 53.3335 80.0003 53.3335C102.067 53.3335 120 71.2668 120 93.3335C120 115.4 102.067 133.334 80.0003 133.334Z" fill="#F9F9F9"/>
</svg>
